<svg xmlns="http://www.w3.org/2000/svg" width="848.719" height="452.595" viewBox="0 0 848.719 452.595">
    <g id="组_1791" data-name="组 1791" transform="translate(-522.173 -239.916)">
        <g id="组_1784" data-name="组 1784" transform="translate(-1054.227 -213.773)">
            <g id="椭圆_511" data-name="椭圆 511" transform="matrix(0.174, -0.985, 0.985, 0.174, 1576.399, 768.356)" fill="#fff" stroke="#e5e8ef" stroke-width="2" stroke-dasharray="4">
                <ellipse cx="135.451" cy="397.15" rx="135.451" ry="397.15" stroke="none"/>
                <ellipse cx="135.451" cy="397.15" rx="134.451" ry="396.15" fill="none"/>
            </g>
            <g id="椭圆_509" data-name="椭圆 509" transform="translate(2326.98 722.872)" fill="#fff" stroke="#e5e8ef" stroke-width="2" stroke-dasharray="4">
                <circle cx="49.069" cy="49.069" r="49.069" stroke="none"/>
                <circle cx="49.069" cy="49.069" r="48.069" fill="none"/>
            </g>
            <circle id="椭圆_512" data-name="椭圆 512" cx="11.975" cy="11.975" r="11.975" transform="translate(1621.286 589.454)" fill="#2f95fb"/>
        </g>
        <g id="_404_Page_Not_Found__Two_Color" data-name="404 Page Not Found _Two Color" transform="translate(662.686 202.314)">
            <path id="路径_3916" data-name="路径 3916"
                  d="M121.993,151.268c-43.506,7.741-74.162,45.519-69.207,87.167,2.632,21.985,13.625,41.493,41.648,47.067,74.317,15.018,354.862,71.22,409.98-26.32,43.042-76.02,17.341-128.506-22.6-161.484S359.187,71.687,290.754,94.137C240.126,111.013,202.193,137.024,121.993,151.268Z"
                  transform="translate(6.178 20.567)" fill="#f1f5fb"/>
            <ellipse id="椭圆_515" data-name="椭圆 515" cx="252.986" cy="18.734" rx="252.986" ry="18.734" transform="translate(47.662 346.788)" fill="#eaeef4"/>
            <circle id="椭圆_516" data-name="椭圆 516" cx="12.576" cy="12.576" r="12.576" transform="translate(47.508 37.602)" fill="#2f95fb" opacity="0.15"/>
            <circle id="椭圆_517" data-name="椭圆 517" cx="80.355" cy="80.355" r="80.355" transform="translate(204.656 203.884)" fill="#04379d"/>
            <circle id="椭圆_518" data-name="椭圆 518" cx="50.628" cy="50.628" r="50.628" transform="translate(234.383 233.61)" fill="#fff"/>
            <path id="路径_3917" data-name="路径 3917"
                  d="M177.355,242.2c5.264,0,7.277,1.858,7.277,7.277v9.135c0,5.264-1.548,7.277-7.277,7.277H162.646v27.869c0,5.264-1.858,7.277-7.277,7.277H145c-5.264,0-7.277-1.858-7.277-7.277V265.884H67.583c-5.264,0-7.277-1.858-7.277-7.277v-7.741a14.219,14.219,0,0,1,2.477-8.67l70.756-87.787a12.759,12.759,0,0,1,10.219-5.109h11.767c5.264,0,7.277,1.548,7.277,7.277V242.2h14.554ZM137.719,185.22,91.426,242.351h46.293Z"
                  transform="translate(10.58 61.241)" fill="#0095ff"/>
            <path id="路径_3918" data-name="路径 3918"
                  d="M373.81,242.2c5.264,0,7.277,1.858,7.277,7.277v9.135c0,5.264-1.548,7.277-7.277,7.277H359.1v27.869c0,5.264-1.858,7.277-7.277,7.277H341.451c-5.264,0-7.277-1.858-7.277-7.277V265.884H263.883c-5.264,0-7.277-1.858-7.277-7.277v-7.741a14.218,14.218,0,0,1,2.477-8.67l70.756-87.787a12.759,12.759,0,0,1,10.219-5.109h11.767c5.264,0,7.277,1.548,7.277,7.277V242.2H373.81ZM334.329,185.22l-46.293,57.131h46.293Z"
                  transform="translate(118.204 61.241)" fill="#0095ff"/>
            <path id="路径_3919" data-name="路径 3919"
                  d="M212.063,131.44s2.168,10.683,1.239,17.96a5.525,5.525,0,0,1-6.038,4.8h-.155c-3.716-.464-8.515-2.322-10.373-7.9l-4.335-8.98a9.712,9.712,0,0,1,3.1-10.838C201.07,121.221,210.979,124.937,212.063,131.44Z"
                  transform="translate(82.702 47.362)" fill="#ffe3de"/>
            <path id="路径_3920" data-name="路径 3920" d="M193.193,133.5,191.8,169.11l19.663-.619-6.812-25.7Z" transform="translate(82.683 52.579)" fill="#ffe3de"/>
            <path id="路径_3921" data-name="路径 3921"
                  d="M209.879,135.087a54.176,54.176,0,0,1-10.064.464,9.258,9.258,0,0,1,1.239,9.909,7.5,7.5,0,0,1-8.515,4.025l-1.393-13.934a10.758,10.758,0,0,1,4.335-10.373,25.787,25.787,0,0,1,4.335-2.787c3.716-2.013,9.909-.155,13.16-3.251a2.663,2.663,0,0,1,3.716.155,2.5,2.5,0,0,1,.619,1.084c1.084,4.18,1.239,10.838-4.335,13.78A10.276,10.276,0,0,1,209.879,135.087Z"
                  transform="translate(82.254 44.334)" fill="#04379d"/>
            <path id="路径_3922" data-name="路径 3922" d="M200.181,136.84s-.619-4.18-3.716-3.406c-3.1.619-2.322,6.658,2.013,6.658Z" transform="translate(84.211 52.49)" fill="#fcdfd9"/>
            <path id="路径_3923" data-name="路径 3923" d="M206.039,133.1l3.561,3.716a1.729,1.729,0,0,1-.155,2.477,1.174,1.174,0,0,1-.619.31l-4.025,1.239Z" transform="translate(89.81 52.359)" fill="#fcdfd9"/>
            <path id="路径_3924" data-name="路径 3924" d="M203.612,144.142A14.138,14.138,0,0,1,196.8,141.2s1.084,6.5,8.825,11.922Z" transform="translate(85.424 56.8)" fill="#ce8172" opacity="0.31"/>
            <path id="路径_3925" data-name="路径 3925"
                  d="M207.8,156.881l19.663-.619s30.81-5.264,41.493,19.973c10.683,25.082-2.942,60.692-2.942,60.692s-11.147,37.468-58.215,33.288c0,0-39.016-2.322-43.506-55.892a54.216,54.216,0,0,0-1.084-6.967C161.5,198.994,160.419,173.6,207.8,156.881Z"
                  transform="translate(66.687 64.808)" fill="#0095ff"/>
            <path id="路径_3926" data-name="路径 3926" d="M171,181.1s10.528,1.084,24.927,25.546,43.042,15.483,59.144-2.632L225.189,243.5l-33.443-2.632L173.632,192.4Z" transform="translate(71.279 78.676)" opacity="0.08"/>
            <rect id="矩形_5938" data-name="矩形 5938" width="5.729" height="16.876" transform="matrix(0.991, -0.132, 0.132, 0.991, 357.142, 199.395)" fill="#ffd200"/>
            <rect id="矩形_5939" data-name="矩形 5939" width="5.729" height="16.876" transform="matrix(0.991, -0.132, 0.132, 0.991, 357.142, 199.395)" fill="#0095ff"/>
            <rect id="矩形_5940" data-name="矩形 5940" width="8.98" height="21.676" transform="matrix(0.991, -0.132, 0.132, 0.991, 357.305, 211.697)" fill="#04379d"/>
            <path id="路径_3927" data-name="路径 3927" d="M249.417,119.361a18.984,18.984,0,1,0,21.366,16.257,19.007,19.007,0,0,0-21.366-16.257Zm4.335,32.049a13.444,13.444,0,1,1,11.457-15.173h0a13.474,13.474,0,0,1-11.457,15.173Z"
                  transform="translate(105.265 44.733)" fill="#0095ff"/>
            <circle id="椭圆_519" data-name="椭圆 519" cx="13.47" cy="13.47" r="13.47" transform="translate(343.845 169.512)" fill="#fff"/>
            <path id="路径_3928" data-name="路径 3928"
                  d="M164.174,188.143a9.607,9.607,0,0,1,11.767-6.967,9.777,9.777,0,0,1,5.883,4.335,226.651,226.651,0,0,1,18.889,38.4c11.3,29.882,66.266,10.219,86.7-59.608l11.612,7.277s-15.947,90.728-80.355,93.98c0,0-40.255,8.206-52.486-41.184,0,0-3.1-9.29-3.406-14.554l-.774-5.883a51.875,51.875,0,0,1,2.013-15.483Z"
                  transform="translate(66.338 69.465)" fill="#2fa7fc"/>
            <path id="路径_3929" data-name="路径 3929" d="M244.9,170.664s1.239-15.018,7.277-14.863c6.193,0,20.592,11.147-1.7,18.424Z" transform="translate(111.796 64.804)" fill="#ffe3de"/>
            <path id="路径_3930" data-name="路径 3930"
                  d="M374.7,105.593A10.7,10.7,0,0,0,364.018,94.91h0a6.351,6.351,0,0,0-1.7.155,14.236,14.236,0,0,0-12.541-7.586h-.464a16.992,16.992,0,0,0-32.978-8.206,18.354,18.354,0,0,0,0,8.206h-.464a14.332,14.332,0,1,0-1.084,28.643h50.628v-.155A10.4,10.4,0,0,0,374.7,105.593Z"
                  transform="translate(142.549 15.768)" fill="#eaeef4"/>
            <path id="路径_3931" data-name="路径 3931"
                  d="M104.328,171.478a9.054,9.054,0,0,0-9.135-9.135h0a4.286,4.286,0,0,0-1.393.155,12.33,12.33,0,0,0-10.838-6.5H82.5a14.5,14.5,0,0,0-10.528-17.65,14.854,14.854,0,0,0-17.805,10.528,13.883,13.883,0,0,0,0,7.122H53.7a12.24,12.24,0,0,0-.929,24.463H96.277V180.3A8.678,8.678,0,0,0,104.328,171.478Z"
                  transform="translate(0 55.011)" fill="#eaeef4"/>
            <circle id="椭圆_520" data-name="椭圆 520" cx="6.593" cy="6.593" r="6.593" transform="translate(53.49 43.584)" fill="#2f95fb" opacity="0.6"/>
        </g>
    </g>
</svg>